<svg width="101" height="26" viewBox="0 0 101 26" fill="none" xmlns="http://www.w3.org/2000/svg">
<path fillRule="evenodd" clipRule="evenodd" d="M42.3543 1.34849C42.2296 0.941106 41.7918 0.910427 41.6336 1.29801L35.1123 17.2803C34.6944 18.3045 33.5818 18.3875 33.0751 17.4323L29.3395 10.39C29.1783 10.0861 28.8286 10.0943 28.6761 10.4057L24.79 18.3423C24.5718 18.7881 24.1916 19.0583 23.7829 19.0583H0V18.034H23.7829C23.9191 18.034 24.0459 17.9439 24.1186 17.7954L28.0047 9.85872C28.4621 8.92467 29.5113 8.89982 29.9949 9.81156L33.7305 16.8539C33.8994 17.1723 34.2702 17.1446 34.4096 16.8032L40.9309 0.820936C41.4053 -0.341793 42.7189 -0.249776 43.093 0.972398L48.2151 17.7099C48.2749 17.9055 48.4214 18.034 48.5844 18.034H54V19.0583H48.5844C48.0953 19.0583 47.656 18.6728 47.4764 18.086L42.3543 1.34849Z" fill="#AEAEBB"/>
<path fillRule="evenodd" clipRule="evenodd" d="M93.167 11.3491C93.0008 10.9756 92.4919 10.9449 92.2837 11.2959L88.5732 17.551C88.0307 18.4656 86.7582 18.545 86.1102 17.7047L84.2853 15.3383C84.0802 15.0723 83.6824 15.0801 83.4875 15.3539L81.2998 18.4273C81.0176 18.8237 80.5661 19.0583 80.0856 19.0583H64V18.0392H80.0856C80.2458 18.0392 80.3963 17.961 80.4903 17.8288L82.6781 14.7554C83.2628 13.934 84.4562 13.9106 85.0716 14.7085L86.8965 17.0749C87.1125 17.355 87.5366 17.3286 87.7174 17.0237L91.428 10.7686L91.8559 11.0322L91.428 10.7686C92.0525 9.71579 93.5792 9.80776 94.0777 10.9282L97.1083 17.74C97.1894 17.9222 97.3674 18.0392 97.5637 18.0392H101V19.0583H97.5637C96.975 19.0583 96.4407 18.7073 96.1976 18.1609L93.167 11.3491Z" fill="#AEAEBB"/>
<path fillRule="evenodd" clipRule="evenodd" d="M62.2971 8.70321L62.7051 7.81494L63.6133 8.23464L63.2054 9.12291L62.2971 8.70321ZM60.6653 12.2563L61.4812 10.4797L62.3895 10.8994L61.5736 12.676L60.6653 12.2563ZM59.0335 15.8094L59.8494 14.0328L60.7576 14.4525L59.9417 16.2291L59.0335 15.8094ZM57.4017 19.3624L58.2176 17.5859L59.1258 18.0056L58.3099 19.7821L57.4017 19.3624ZM55.7698 22.9155L56.5857 21.139L57.494 21.5587L56.6781 23.3352L55.7698 22.9155ZM54.546 25.5803L54.9539 24.692L55.8622 25.1117L55.4542 26L54.546 25.5803Z" fill="#AEAEBB"/>
</svg>
