<svg width="24" height="24" viewBox="0 0 24 24" fill="none" xmlns="http://www.w3.org/2000/svg">
<path d="M15.9719 2.06803C16.0242 1.97732 16.1551 1.97732 16.2073 2.06803L19.4178 7.64077L9.56067 24.8547C6.78737 24.9881 4.22773 25.4339 2.25155 25.8838L15.9719 2.06803Z" fill="#18D4E0"/>
<path d="M26.3931 27.7963C29.8222 27.7963 33.4739 26.151 35.7404 24.9101L24.5049 5.28918C24.4527 5.19806 24.3213 5.19806 24.2691 5.28918L13.0455 24.8894C15.7146 25.1104 17.7436 25.785 19.6798 26.4288C21.7915 27.1309 23.7927 27.7963 26.3931 27.7963Z" fill="#18D4E0"/>
<path d="M19.2985 29.0903C21.1596 29.7053 22.9289 30.2899 24.4937 30.5205C28.3671 31.0914 33.7215 29.3788 36 27.2096C34.2911 30.5205 29.962 34.0598 24.4937 34.0598C20.0719 34.0598 16.6998 32.7612 13.2767 31.4429C12.4664 31.1309 11.6533 30.8178 10.8228 30.5205C8.10961 29.5494 3.4184 29.6521 1.02534 29.7045C0.604887 29.7137 0.255375 29.7213 0 29.7213C2.05063 28.1229 6.1519 27.2096 10.8228 27.2096C13.6067 27.2096 16.5526 28.183 19.2985 29.0903Z" fill="#18D4E0"/>
</svg>
