<svg width="20" height="20" viewBox="0 0 20 20" fill="none" xmlns="http://www.w3.org/2000/svg">
<path d="M16.667 15.8333V5.83333H3.33366V15.8333H16.667ZM16.667 2.5C17.109 2.5 17.5329 2.67559 17.8455 2.98816C18.1581 3.30072 18.3337 3.72464 18.3337 4.16667V15.8333C18.3337 16.2754 18.1581 16.6993 17.8455 17.0118C17.5329 17.3244 17.109 17.5 16.667 17.5H3.33366C2.89163 17.5 2.46771 17.3244 2.15515 17.0118C1.84259 16.6993 1.66699 16.2754 1.66699 15.8333V4.16667C1.66699 3.72464 1.84259 3.30072 2.15515 2.98816C2.46771 2.67559 2.89163 2.5 3.33366 2.5H16.667ZM10.8337 14.1667V12.5H15.0003V14.1667H10.8337ZM7.98366 10.8333L4.64199 7.5H7.00033L9.75033 10.25C10.0753 10.575 10.0753 11.1083 9.75033 11.4333L7.01699 14.1667H4.65866L7.98366 10.8333Z" fill="#82838E"/>
</svg>
