<svg width="16" height="16" viewBox="0 0 16 16" fill="none" xmlns="http://www.w3.org/2000/svg">
<path fill-rule="evenodd" clip-rule="evenodd" d="M13.8808 1.50995C14.1182 1.74522 14.1182 2.12668 13.8808 2.36195L13.0948 3.14086L14.4888 4.52223C14.7262 4.7575 14.7262 5.13896 14.4888 5.37423L12.361 7.48283C12.1236 7.7181 11.7386 7.7181 11.5012 7.48283L10.1073 6.10146L8.43759 7.75607C8.6245 8.00658 8.78102 8.27889 8.90336 8.56747C9.10521 9.04361 9.21003 9.55463 9.21178 10.0711C9.21352 10.5875 9.11216 11.0992 8.91353 11.5767C8.7149 12.0542 8.42291 12.488 8.0544 12.8532C7.68588 13.2184 7.24811 13.5077 6.76628 13.7046C6.28446 13.9014 5.7681 14.0019 5.24694 14.0001C4.72578 13.9984 4.21011 13.8945 3.72963 13.6945C3.24915 13.4945 2.81334 13.2022 2.4473 12.8346L2.44274 12.83C1.72292 12.0915 1.32464 11.1022 1.33365 10.0755C1.34265 9.04874 1.75824 8.06657 2.4909 7.34052C3.22356 6.61447 4.21468 6.20263 5.25078 6.19371C6.08538 6.18652 6.89538 6.44123 7.56841 6.9134L13.0211 1.50995C13.2585 1.27468 13.6434 1.27468 13.8808 1.50995ZM12.2351 3.99287L10.967 5.24946L11.9311 6.20483L13.1991 4.94823L12.2351 3.99287ZM3.31509 11.9906C2.81817 11.4796 2.54326 10.7957 2.54948 10.086C2.55572 9.37514 2.84343 8.69517 3.35066 8.19252C3.85789 7.68987 4.54405 7.40475 5.26135 7.39857C5.97865 7.3924 6.6697 7.66565 7.18567 8.15949C7.19118 8.16477 7.19677 8.16992 7.20243 8.17495C7.4495 8.42177 7.64642 8.71346 7.78238 9.03415C7.92213 9.36379 7.99469 9.71757 7.9959 10.0751C7.99711 10.4327 7.92694 10.7869 7.78942 11.1175C7.65191 11.448 7.44976 11.7484 7.19464 12.0012C6.93951 12.254 6.63644 12.4543 6.30286 12.5906C5.96929 12.7269 5.61181 12.7964 5.25101 12.7952C4.89021 12.794 4.53321 12.7221 4.20057 12.5836C3.86893 12.4456 3.56803 12.244 3.31509 11.9906ZM3.31509 11.9906L3.31733 11.9929L2.88005 12.4115L3.3128 11.9883L3.31509 11.9906Z" fill="#010E29"/>
</svg>
