<svg width="24" height="24" viewBox="0 0 24 24" fill="none" xmlns="http://www.w3.org/2000/svg">
<path fill-rule="evenodd" clip-rule="evenodd" d="M11.2929 11.2929C11.6834 10.9024 12.3166 10.9024 12.7071 11.2929L16.7071 15.2929C17.0976 15.6834 17.0976 16.3166 16.7071 16.7071C16.3166 17.0976 15.6834 17.0976 15.2929 16.7071L12 13.4142L8.70711 16.7071C8.31658 17.0976 7.68342 17.0976 7.29289 16.7071C6.90237 16.3166 6.90237 15.6834 7.29289 15.2929L11.2929 11.2929Z" fill="white"/>
<path fill-rule="evenodd" clip-rule="evenodd" d="M11.9994 11.2C12.5416 11.2 12.9812 11.6151 12.9812 12.1272V20.4727C12.9812 20.9848 12.5416 21.4 11.9994 21.4C11.4572 21.4 11.0176 20.9848 11.0176 20.4727V12.1272C11.0176 11.6151 11.4572 11.2 11.9994 11.2Z" fill="white"/>
<path fill-rule="evenodd" clip-rule="evenodd" d="M9.3289 4.00488C10.4168 3.9648 11.4996 4.17186 12.496 4.6105C13.4923 5.04914 14.3762 5.70794 15.0813 6.53738C15.6506 7.2071 16.0914 7.974 16.3835 8.79935H16.8003C17.867 8.80006 18.9037 9.15598 19.7457 9.81094C20.5876 10.4659 21.1875 11.3826 21.4506 12.4164C21.7138 13.4501 21.6251 14.5421 21.1987 15.5199C20.7723 16.4977 20.0325 17.3056 19.0959 17.8162C18.7078 18.0278 18.2218 17.8847 18.0102 17.4967C17.7987 17.1086 17.9418 16.6226 18.3298 16.411C18.9542 16.0706 19.4474 15.532 19.7317 14.8801C20.016 14.2283 20.0751 13.5003 19.8996 12.8111C19.7242 12.122 19.3243 11.5108 18.763 11.0742C18.2017 10.6375 17.5109 10.4003 16.7998 10.3998H15.792C15.4272 10.3998 15.1086 10.1531 15.0173 9.79987C14.8054 8.98012 14.4103 8.21907 13.8619 7.57396C13.3135 6.92884 12.626 6.41644 11.8511 6.07527C11.0762 5.73411 10.234 5.57306 9.38783 5.60424C8.54169 5.63541 7.71363 5.858 6.9659 6.25527C6.21817 6.65253 5.57023 7.21413 5.07079 7.89786C4.57135 8.58158 4.23341 9.36963 4.08237 10.2028C3.93133 11.0359 3.97113 11.8924 4.19877 12.708C4.42641 13.5235 4.83596 14.2768 5.39665 14.9113C5.6893 15.2424 5.65808 15.7482 5.32692 16.0408C4.99575 16.3335 4.49004 16.3022 4.19738 15.9711C3.4765 15.1553 2.94993 14.1868 2.65725 13.1382C2.36458 12.0897 2.31341 10.9884 2.5076 9.91727C2.70179 8.8461 3.13629 7.8329 3.77843 6.95382C4.42057 6.07475 5.25363 5.35269 6.215 4.84192C7.17636 4.33115 8.24101 4.04497 9.3289 4.00488Z" fill="white"/>
<path fill-rule="evenodd" clip-rule="evenodd" d="M11.4333 11.4345C11.7458 11.1219 12.2525 11.1219 12.565 11.4345L15.7659 14.6353C16.0784 14.9478 16.0784 15.4545 15.7659 15.767C15.4534 16.0795 14.9467 16.0795 14.6342 15.767L11.9991 13.132L9.36411 15.767C9.0516 16.0795 8.54493 16.0795 8.23243 15.767C7.91992 15.4545 7.91992 14.9478 8.23243 14.6353L11.4333 11.4345Z" fill="white"/>
</svg>
