<svg width="44" height="31" viewBox="0 0 44 31" fill="none" xmlns="http://www.w3.org/2000/svg">
<path d="M30.4251 5.17564C24.7152 -0.554964 15.4562 -0.554964 9.74634 5.17564L0.41376 14.5419C-0.13792 15.0962 -0.13792 15.9886 0.41376 16.5429L9.74634 25.9091C15.4562 31.6397 24.7152 31.6397 30.4251 25.9185C36.1442 20.1973 36.1442 10.9062 30.4251 5.17564ZM28.2184 23.166C24.0256 27.3747 17.2216 27.3747 13.0288 23.166L6.16042 16.2798C5.75586 15.8759 5.75586 15.2183 6.16042 14.8049L13.0196 7.9282C17.2124 3.7195 24.0165 3.7195 28.2092 7.9282C32.4112 12.1369 32.4112 18.9573 28.2184 23.166Z" fill="#4FC4F9"/>
<path d="M42.6532 14.5515L38.5431 10.3522C38.2949 10.0986 37.8811 10.3334 37.9639 10.681C38.6719 13.8845 38.6719 17.2289 37.9639 20.4324C37.8903 20.78 38.3041 21.0055 38.5431 20.7612L42.6532 16.5619C43.1956 15.9983 43.1956 15.1058 42.6532 14.5515Z" fill="#4FC4F9"/>
<path d="M20.6691 22.9126C24.6453 22.9126 27.8686 19.6193 27.8686 15.5568C27.8686 11.4942 24.6453 8.20093 20.6691 8.20093C16.693 8.20093 13.4697 11.4942 13.4697 15.5568C13.4697 19.6193 16.693 22.9126 20.6691 22.9126Z" fill="#4FC4F9"/>
</svg>
