<svg width="20" height="20" viewBox="0 0 20 20" fill="none" xmlns="http://www.w3.org/2000/svg">
<path fill-rule="evenodd" clip-rule="evenodd" d="M11.165 0.902214C11.5044 1.04952 11.706 1.40291 11.6601 1.76999L10.9438 7.49997H17.4998C17.8232 7.49997 18.1174 7.68702 18.2545 7.97984C18.3917 8.27266 18.347 8.61838 18.14 8.86679L9.8067 18.8668C9.56987 19.151 9.17403 19.245 8.83469 19.0977C8.49534 18.9504 8.29373 18.597 8.33962 18.2299L9.05586 12.5H2.49985C2.1765 12.5 1.88234 12.3129 1.74519 12.0201C1.60804 11.7273 1.65266 11.3815 1.85966 11.1331L10.193 1.13314C10.4298 0.84895 10.8257 0.754907 11.165 0.902214ZM4.27905 10.8333H9.99985C10.2389 10.8333 10.4664 10.9359 10.6246 11.1151C10.7828 11.2943 10.8564 11.5328 10.8267 11.77L10.346 15.6163L15.7206 9.16663H9.99985C9.76082 9.16663 9.5333 9.06399 9.37512 8.8848C9.21693 8.70561 9.1433 8.46712 9.17295 8.22994L9.65373 4.38368L4.27905 10.8333Z" fill="#06AFF2"/>
</svg>
