<svg width="16" height="16" viewBox="0 0 16 16" fill="none" xmlns="http://www.w3.org/2000/svg">
<g clip-path="url(#clip0)">
<path fill-rule="evenodd" clip-rule="evenodd" d="M2.74339 13.2866C1.57182 12.115 1.57182 10.2155 2.74339 9.04396L4.39331 7.39405C4.65366 7.1337 5.07577 7.1337 5.33612 7.39405C5.59647 7.6544 5.59647 8.07651 5.33612 8.33686L3.6862 9.98677C3.03533 10.6376 3.03533 11.6929 3.6862 12.3438C4.33707 12.9947 5.39235 12.9947 6.04322 12.3438L7.69314 10.6939C7.95349 10.4335 8.3756 10.4335 8.63595 10.6939C8.8963 10.9542 8.8963 11.3763 8.63595 11.6367L6.98603 13.2866C5.81446 14.4582 3.91496 14.4582 2.74339 13.2866Z" fill="white"/>
<path fill-rule="evenodd" clip-rule="evenodd" d="M12.6428 3.3871C13.8144 4.55868 13.8144 6.45817 12.6428 7.62974L10.9929 9.27966C10.7326 9.54001 10.3105 9.54001 10.0501 9.27966C9.78977 9.01931 9.78977 8.5972 10.0501 8.33685L11.7 6.68693C12.3509 6.03606 12.3509 4.98079 11.7 4.32991C11.0492 3.67904 9.99388 3.67904 9.34301 4.32991L7.69309 5.97983C7.43274 6.24018 7.01063 6.24018 6.75028 5.97983C6.48993 5.71948 6.48993 5.29737 6.75028 5.03702L8.4002 3.3871C9.57177 2.21553 11.4713 2.21553 12.6428 3.3871Z" fill="white"/>
<path fill-rule="evenodd" clip-rule="evenodd" d="M1.29944 6.37793C1.29944 6.10179 1.5233 5.87793 1.79944 5.87793H3.05963C3.33577 5.87793 3.55963 6.10179 3.55963 6.37793C3.55963 6.65407 3.33577 6.87793 3.05963 6.87793H1.79944C1.5233 6.87793 1.29944 6.65407 1.29944 6.37793Z" fill="white"/>
<path fill-rule="evenodd" clip-rule="evenodd" d="M5.73157 1.98645C5.45543 1.98645 5.23157 2.21031 5.23157 2.48645V3.74645C5.23157 4.02259 5.45543 4.24645 5.73157 4.24645C6.00771 4.24645 6.23157 4.02259 6.23157 3.74645V2.48645C6.23157 2.21031 6.00771 1.98645 5.73157 1.98645Z" fill="white"/>
<path fill-rule="evenodd" clip-rule="evenodd" d="M2.51681 3.06168C2.71207 2.86642 3.02865 2.86642 3.22391 3.06168L4.64773 4.4855C4.843 4.68076 4.843 4.99735 4.64773 5.19261C4.45247 5.38787 4.13589 5.38787 3.94063 5.19261L2.51681 3.76879C2.32155 3.57353 2.32155 3.25695 2.51681 3.06168Z" fill="white"/>
<path fill-rule="evenodd" clip-rule="evenodd" d="M9.91736 14.2424C10.1935 14.2424 10.4174 14.0186 10.4174 13.7424V12.4822C10.4174 12.2061 10.1935 11.9822 9.91736 11.9822C9.64122 11.9822 9.41736 12.2061 9.41736 12.4822V13.7424C9.41736 14.0186 9.64122 14.2424 9.91736 14.2424Z" fill="white"/>
<path fill-rule="evenodd" clip-rule="evenodd" d="M14.3088 9.37524C14.3088 9.65139 14.085 9.87524 13.8088 9.87524H12.5487C12.2725 9.87524 12.0487 9.65139 12.0487 9.37524C12.0487 9.0991 12.2725 8.87524 12.5487 8.87524H13.8088C14.085 8.87524 14.3088 9.0991 14.3088 9.37524Z" fill="white"/>
<path fill-rule="evenodd" clip-rule="evenodd" d="M13.2337 13.0252C13.429 12.8299 13.429 12.5133 13.2337 12.3181L11.8099 10.8943C11.6146 10.699 11.2981 10.699 11.1028 10.8943C10.9075 11.0895 10.9075 11.4061 11.1028 11.6014L12.5266 13.0252C12.7219 13.2204 13.0385 13.2204 13.2337 13.0252Z" fill="white"/>
</g>
<defs>
<clipPath id="clip0">
<rect width="16" height="16" fill="white"/>
</clipPath>
</defs>
</svg>
