<svg width="48" height="48" viewBox="0 0 48 48" fill="none" xmlns="http://www.w3.org/2000/svg">
<path d="M29.29 17.7886C30.0117 16.9137 31.306 16.7894 32.181 17.511C33.0559 18.2326 33.1802 19.5269 32.4586 20.4019L22.9354 31.9485C22.2138 32.8234 20.9195 32.9477 20.0445 32.2261C19.1696 31.5044 19.0453 30.2101 19.7669 29.3352L29.29 17.7886Z" fill="#AEAEBB"/>
<path d="M22 19.1014L15.3798 17.0207L22 14.8986V11L12 14.7785V19.2215L22 23V19.1014Z" fill="#AEAEBB"/>
<path fill-rule="evenodd" clip-rule="evenodd" d="M21 1C9.9543 1 1 9.9543 1 21C1 32.0457 9.9543 41 21 41C25.5938 41 29.8258 39.4512 33.2025 36.8474C33.3392 37.1868 33.545 37.5048 33.8201 37.7799L42.2201 46.1799C43.3136 47.2734 45.0864 47.2734 46.1799 46.1799C47.2734 45.0864 47.2734 43.3136 46.1799 42.2201L37.7799 33.8201C37.5048 33.545 37.1868 33.3392 36.8474 33.2025C39.4512 29.8258 41 25.5938 41 21C41 9.9543 32.0457 1 21 1ZM6.71429 21C6.71429 13.1102 13.1102 6.71429 21 6.71429C28.8898 6.71429 35.2857 13.1102 35.2857 21C35.2857 28.8898 28.8898 35.2857 21 35.2857C13.1102 35.2857 6.71429 28.8898 6.71429 21Z" fill="#AEAEBB"/>
</svg>
