<svg width="21" height="21" viewBox="0 0 21 21" fill="none" xmlns="http://www.w3.org/2000/svg">
<path d="M7.82519 0.0136337C6.72305 0.0136337 5.82252 0.914161 5.82252 2.0163C5.82252 3.11844 6.72305 4.01896 7.82519 4.01896H9.82786V2.0163C9.82786 0.914161 8.94077 0.0136337 7.82519 0.0136337ZM7.82519 5.3496H2.50267C1.40053 5.3496 0.5 6.25013 0.5 7.35226C0.5 8.4544 1.40053 9.35493 2.50267 9.35493H7.83863C8.94077 9.35493 9.8413 8.4544 9.8413 7.35226C9.82786 6.25013 8.94077 5.3496 7.82519 5.3496Z" fill="#36C5F0"/>
<path d="M20.5 7.35207C20.5 6.24994 19.5995 5.34941 18.4973 5.34941C17.3952 5.34941 16.4947 6.24994 16.4947 7.35207V9.35474H18.4973C19.5995 9.36818 20.5 8.46765 20.5 7.35207ZM15.164 7.35207V2.00267C15.164 0.900527 14.2635 0 13.1614 0C12.0592 0 11.1587 0.900527 11.1587 2.00267V7.35207C11.1587 8.45421 12.0592 9.35474 13.1614 9.35474C14.2769 9.36818 15.164 8.46765 15.164 7.35207Z" fill="#2EB67D"/>
<path d="M13.1614 20.0536C14.2635 20.0536 15.164 19.1531 15.164 18.051C15.164 16.9488 14.2635 16.0483 13.1614 16.0483H11.1587V18.051C11.1587 19.1531 12.0592 20.0536 13.1614 20.0536ZM13.1614 14.7042H18.4973C19.5995 14.7042 20.5 13.8037 20.5 12.7016C20.5 11.5994 19.5995 10.6989 18.4973 10.6989H13.1614C12.0592 10.6989 11.1587 11.5994 11.1587 12.7016C11.1587 13.8037 12.0592 14.7042 13.1614 14.7042Z" fill="#ECB22E"/>
<path d="M0.5 12.7016C0.5 13.8037 1.40053 14.7042 2.50267 14.7042C3.60481 14.7042 4.50533 13.8037 4.50533 12.7016V10.6989H2.50267C1.38709 10.6989 0.5 11.5994 0.5 12.7016ZM5.83597 12.7016V18.051C5.83597 19.1531 6.73649 20.0536 7.83863 20.0536C8.94077 20.0536 9.8413 19.1531 9.8413 18.051V12.7016C9.8413 11.5994 8.94077 10.6989 7.83863 10.6989C6.72305 10.6989 5.83597 11.5994 5.83597 12.7016Z" fill="#E01E5A"/>
</svg>
