<svg width="20" height="20" viewBox="0 0 20 20" fill="none" xmlns="http://www.w3.org/2000/svg">
<path d="M16.5776 5.20276C15.6262 5.20276 14.8544 5.97516 14.8544 6.92595C14.8544 7.06037 14.8714 7.19479 14.899 7.31739L12.191 8.43664C11.9451 7.98881 11.5589 7.62557 11.0999 7.40132L12.0342 4.75493C12.0677 4.76083 12.1011 4.76083 12.1352 4.76083C12.7562 4.76083 13.2656 4.25136 13.2656 3.63043C13.265 3.0095 12.7562 2.50003 12.1293 2.50003C11.5025 2.50003 10.9989 3.0095 10.9989 3.63043C10.9989 4.02187 11.2002 4.36872 11.5025 4.57068L10.5682 7.21707C10.3892 7.17773 10.199 7.15544 10.0089 7.15544C9.61152 7.15544 9.23646 7.25051 8.90075 7.41313L8.04443 6.08144C8.35194 5.79622 8.54799 5.38182 8.54799 4.92875C8.54799 4.06128 7.84314 3.35119 6.97043 3.35119C6.09772 3.35053 5.39287 4.0613 5.39287 4.92875C5.39287 5.7962 6.09772 6.50631 6.97043 6.50631C7.18287 6.50631 7.39007 6.46173 7.57497 6.38304L8.4313 7.71473C8.01757 8.05044 7.7153 8.51466 7.58612 9.05166L4.28476 8.62611C4.20674 8.21239 3.83693 7.89306 3.40091 7.89306C2.90325 7.89306 2.5 8.29564 2.5 8.79397C2.5 9.29162 2.90258 9.69488 3.40091 9.69488C3.75891 9.69488 4.06642 9.48244 4.21198 9.18017L7.51334 9.60571V9.64505C7.51334 10.2548 7.73168 10.8089 8.09492 11.2456L5.70568 13.7523C5.39817 13.534 5.02836 13.4107 4.62577 13.4107C3.59045 13.4107 2.74597 14.2559 2.74597 15.2905C2.74597 16.3258 3.59115 17.1703 4.62577 17.1703C5.6611 17.1703 6.50557 16.3251 6.50557 15.2905C6.50557 14.8538 6.36001 14.4571 6.10823 14.1378L8.49747 11.6311C8.84432 11.894 9.25872 12.0678 9.71179 12.1235L9.62787 13.6171C9.25872 13.7292 8.99579 14.0761 8.99579 14.4787C8.99579 14.9763 9.39838 15.3796 9.8967 15.3796C10.3944 15.3796 10.7976 14.977 10.7976 14.4787C10.7976 14.0872 10.5458 13.7515 10.1878 13.6283L10.2718 12.1287C10.574 12.0953 10.8592 12.0114 11.1222 11.8769L13.5389 15.6031C13.354 15.8044 13.2367 16.0733 13.2367 16.3696C13.2367 16.9906 13.7461 17.5 14.3671 17.5C14.988 17.5 15.4975 16.9906 15.4975 16.3696C15.4975 15.7487 14.988 15.2392 14.3671 15.2392C14.2386 15.2392 14.1212 15.2615 14.0032 15.3009L11.5864 11.5747C11.8159 11.3845 12.0172 11.1491 12.1627 10.8862L14.2275 11.7812C14.2275 11.8094 14.2216 11.8369 14.2216 11.8651C14.2216 12.3628 14.6242 12.766 15.1225 12.766C15.6202 12.766 16.0234 12.3635 16.0234 11.8651C16.0234 11.3675 15.6208 10.9642 15.1225 10.9642C14.8537 10.9642 14.613 11.0816 14.4511 11.2665L12.3863 10.3715C12.4591 10.142 12.4925 9.89613 12.4925 9.64435C12.4925 9.40371 12.4591 9.17422 12.3975 8.95588L15.1055 7.83139C15.4077 8.31789 15.9506 8.64246 16.5657 8.64246C17.5171 8.64246 18.2889 7.87006 18.2889 6.91927C18.2895 5.96918 17.523 5.20262 16.5776 5.20262L16.5776 5.20276Z" fill="#06AFF2"/>
</svg>
