<svg width="16" height="16" viewBox="0 0 16 16"  xmlns="http://www.w3.org/2000/svg">
<path fill-rule="evenodd" clip-rule="evenodd" d="M14 6.66669C13.6318 6.66669 13.3333 6.36821 13.3333 6.00002L13.3333 3.33335C13.3333 3.15654 13.2631 2.98697 13.1381 2.86195C13.0131 2.73692 12.8435 2.66669 12.6667 2.66669L3.33334 2.66669C3.15653 2.66669 2.98696 2.73693 2.86193 2.86195C2.73691 2.98697 2.66667 3.15654 2.66667 3.33335L2.66667 6.00002C2.66667 6.36821 2.36819 6.66669 2 6.66669C1.63181 6.66669 1.33334 6.36821 1.33334 6.00002L1.33334 3.33335C1.33334 2.80292 1.54405 2.29421 1.91912 1.91914C2.2942 1.54407 2.8029 1.33335 3.33334 1.33335L12.6667 1.33335C13.1971 1.33335 13.7058 1.54407 14.0809 1.91914C14.456 2.29421 14.6667 2.80292 14.6667 3.33335L14.6667 6.00002C14.6667 6.36821 14.3682 6.66669 14 6.66669Z"/>
<path fill-rule="evenodd" clip-rule="evenodd" d="M11.8047 9.80474C11.5444 10.0651 11.1223 10.0651 10.8619 9.80474L8 6.94281L5.13807 9.80474C4.87772 10.0651 4.45561 10.0651 4.19526 9.80474C3.93491 9.54439 3.93491 9.12228 4.19526 8.86193L7.5286 5.5286C7.78894 5.26825 8.21105 5.26825 8.4714 5.5286L11.8047 8.86193C12.0651 9.12228 12.0651 9.54439 11.8047 9.80474Z"/>
<path fill-rule="evenodd" clip-rule="evenodd" d="M8.00001 14.6667C7.63182 14.6667 7.33334 14.3682 7.33334 14L7.33334 6.00002C7.33334 5.63183 7.63181 5.33335 8 5.33335C8.36819 5.33335 8.66667 5.63183 8.66667 6.00002L8.66667 14C8.66667 14.3682 8.36819 14.6667 8.00001 14.6667Z"/>
</svg>
